<?xml version="1.0" encoding="utf-8"?>
<!-- Generator: Adobe Illustrator 16.0.0, SVG Export Plug-In . SVG Version: 6.00 Build 0)  -->
<!DOCTYPE svg PUBLIC "-//W3C//DTD SVG 1.1//EN" "http://www.w3.org/Graphics/SVG/1.1/DTD/svg11.dtd">
<svg version="1.1" id="Layer_1" xmlns="http://www.w3.org/2000/svg" xmlns:xlink="http://www.w3.org/1999/xlink" x="0px" y="0px"
	 width="120px" height="120px" viewBox="0 0 120 120" enable-background="new 0 0 120 120" xml:space="preserve">
<g>
	<path fill="#E97B58" d="M75.669,77.527C75.57,78.338,74.821,79,74.005,79h-5.931c-0.816,0-1.564-0.662-1.663-1.473l-1.495-12.379
		c-0.1-0.811,0.489-1.596,1.305-1.596h9.639c0.815,0,1.404,0.785,1.304,1.596L75.669,77.527z"/>
</g>
<g>
	<g>
		<path fill="none" stroke="#E97B58" stroke-width="0.5" stroke-miterlimit="10" d="M71.652,66.986h-1.225V52.398h1.225V66.986z"/>
	</g>
</g>
<rect x="70.039" y="43.676" fill="#E97B58" width="2" height="6.864"/>
<g>
	<g>
		<path fill="#E97B58" d="M59.492,65.313l-0.021-0.176c-0.048-0.475-0.088-0.968-0.261-1.438c-0.548-1.488-1.562-2.585-3.279-2.979
			v-2.076c0-0.248-0.225-0.24-0.475-0.24h-0.678l-0.758-16.176c-0.006-0.117-0.056-0.273-0.133-0.352
			C53.586,41.256,52.383,41,51.332,41c-1.212,0-2.626,0.398-2.626,1.241l-0.759,16.163H47.27c-0.248,0-0.776-0.008-0.776,0.24v2.076
			c-0.858,0.373-2.446,1.377-3.036,2.771c-0.24,0.568-0.225,1.18-0.289,1.772l0.035,0.048c-0.416,3.866-0.383,5.877-0.369,8.205
			l0.014,0.529c0,0.338,0.04,0.743,0.107,1.057C43.412,77.316,45.396,79,47.66,79h7.415c2.339,0,4.327-1.744,4.729-4.041
			c0.051-0.278,0.074-0.599,0.074-0.878C59.864,71.43,59.809,68.279,59.492,65.313z M49.604,42.324
			c0.153-0.129,0.773-0.395,1.729-0.395c0.965,0,1.587,0.189,1.735,0.318c0.009,0.059,0.03,0.207,0.062,0.256l0.747,15.9H48.85
			L49.604,42.324z M47.352,59.264h7.724v1.309c0-0.008-0.279,0.406-0.384,0.406h-6.647c-0.108,0,0.166-0.416-0.692-0.408V59.264z"/>
	</g>
</g>
<circle fill="none" stroke="#E97B58" stroke-width="3" stroke-miterlimit="10" cx="60" cy="60" r="40"/>
</svg>
