<?xml version="1.0" encoding="utf-8"?>
<!-- Generator: Adobe Illustrator 16.0.0, SVG Export Plug-In . SVG Version: 6.00 Build 0)  -->
<!DOCTYPE svg PUBLIC "-//W3C//DTD SVG 1.1//EN" "http://www.w3.org/Graphics/SVG/1.1/DTD/svg11.dtd">
<svg version="1.1" id="Layer_1" xmlns="http://www.w3.org/2000/svg" xmlns:xlink="http://www.w3.org/1999/xlink" x="0px" y="0px"
	 width="120px" height="120px" viewBox="0 0 120 120" enable-background="new 0 0 120 120" xml:space="preserve">
<g>
	<path fill="#E97B58" d="M55.178,47.468c-5.22,1.733-7.584,8.805-5.273,15.767c2.312,6.962,8.436,11.217,13.655,9.483
		c5.218-1.731,7.583-8.804,5.272-15.767C66.521,49.99,60.396,45.736,55.178,47.468z M63.28,71.876
		c-4.756,1.579-10.378-2.423-12.534-8.921c-2.157-6.498-0.045-13.068,4.711-14.646c4.754-1.578,10.377,2.424,12.533,8.922
		C70.147,63.729,68.034,70.298,63.28,71.876z"/>
	<path fill="#E97B58" d="M70.52,56.391c-1.783-5.371-5.727-9.532-10.184-10.818c0.585-0.811,0.768-1.876,0.445-2.848
		c-0.55-1.654-2.343-2.552-3.994-2.003c-0.162,0.054-0.32,0.121-0.471,0.2c-0.656-1.457-2.326-2.215-3.876-1.701
		c-1.55,0.516-2.437,2.121-2.091,3.682c-0.169,0.027-0.336,0.067-0.498,0.121c-1.652,0.549-2.551,2.34-2.002,3.994
		c0.322,0.971,1.104,1.717,2.059,2.018c-2.803,3.694-3.476,9.389-1.692,14.76c2.319,6.986,8.097,11.557,13.627,11.215l3.161,8.133
		c0.465,1.4,1.42,2.012,2.559,1.635c1.137-0.377,1.537-1.439,1.08-2.82l-2.338-8.429C70.942,70.496,72.839,63.377,70.52,56.391z
		 M63.892,73.718c-5.687,1.888-12.341-2.689-14.835-10.202c-1.785-5.377-0.998-11.064,2.002-14.49
		c0.113-0.129,0.141-0.311,0.075-0.467c-0.067-0.156-0.22-0.261-0.389-0.27c-0.935-0.042-1.76-0.666-2.054-1.551
		c-0.396-1.19,0.251-2.479,1.439-2.874c0.255-0.085,0.525-0.122,0.801-0.111c0.152,0.006,0.297-0.067,0.382-0.192
		c0.085-0.127,0.103-0.287,0.04-0.427c-0.027-0.064-0.053-0.13-0.076-0.198c-0.395-1.188,0.254-2.478,1.442-2.873
		c1.188-0.394,2.478,0.253,2.872,1.441c0.022,0.068,0.04,0.137,0.055,0.205c0.037,0.147,0.146,0.267,0.289,0.317
		c0.145,0.05,0.304,0.021,0.422-0.074c0.216-0.175,0.453-0.306,0.708-0.39c1.19-0.395,2.479,0.252,2.874,1.441
		c0.294,0.886,0.005,1.879-0.719,2.473c-0.133,0.107-0.19,0.281-0.15,0.447c0.04,0.165,0.172,0.294,0.339,0.329
		c4.453,0.952,8.485,5.04,10.27,10.417C72.173,64.183,69.577,71.83,63.892,73.718z"/>
</g>
<circle fill="none" stroke="#E97B58" stroke-width="3" stroke-miterlimit="10" cx="60" cy="60" r="40"/>
</svg>
