<?xml version="1.0" encoding="utf-8"?>
<!-- Generator: Adobe Illustrator 16.0.0, SVG Export Plug-In . SVG Version: 6.00 Build 0)  -->
<!DOCTYPE svg PUBLIC "-//W3C//DTD SVG 1.1//EN" "http://www.w3.org/Graphics/SVG/1.1/DTD/svg11.dtd">
<svg version="1.1" id="Layer_1" xmlns="http://www.w3.org/2000/svg" xmlns:xlink="http://www.w3.org/1999/xlink" x="0px" y="0px"
	 width="120px" height="120px" viewBox="0 0 120 120" enable-background="new 0 0 120 120" xml:space="preserve">
<g>
	<g>
		<g>
			<path fill="#E97B58" d="M45.551,48.013c-3.551,1.709-5.69,4.521-5.69,7.95c0,3.192,1.853,5.847,4.974,7.578
				c-0.592-2.133-0.895-4.375-0.895-6.684C43.939,53.766,44.498,50.732,45.551,48.013z"/>
			<path fill="#E97B58" d="M77.733,46c-0.199,0-0.392,0.055-0.571,0.154c-0.074,0.015-0.147,0.041-0.207,0.096
				c-0.99,0.885-3.275,2.945-3.571,3.326c-0.717,0.205-3.923,1.009-6.685-0.022c-0.375-0.141-0.755-0.285-1.145-0.433
				c-3.357-1.283-7.165-2.738-12.395-2.738c-8.158,0-13.855,3.93-13.855,9.56c0,3.475,2.175,6.3,5.754,7.956
				c0.037,0.027,0.082,0.047,0.127,0.061c1.142,0.513,2.422,0.907,3.816,1.17c0.064,5.688,2.078,11.674,3.15,12.963
				C53.174,79.32,54.629,80,56.139,80c0.396,0,0.797-0.048,1.193-0.145c2.166-0.526,3.764-2.449,3.881-4.674
				c0.023-0.477-0.011-1.021-0.45-1.773c-0.077-0.133-0.163-0.274-0.255-0.423c-0.916-1.517-2.291-3.797-1.803-8.073
				c2.385-0.51,4.445-1.272,6.355-1.982c0.557-0.206,1.099-0.407,1.633-0.596c3.156-1.116,6.787,0.035,6.926,0.078
				c0.296,0.291,2.406,2.193,3.336,3.031c0.06,0.054,0.133,0.082,0.209,0.096c0.18,0.1,0.37,0.154,0.569,0.154
				c1.944,0,2.96-4.953,2.96-9.847S79.678,46,77.733,46z M40.168,55.942c0-3.06,1.909-5.566,5.075-7.091
				c-0.94,2.426-1.438,5.133-1.438,7.888c0,2.06,0.271,4.061,0.799,5.962C41.822,61.159,40.168,58.79,40.168,55.942z M59.771,73.432
				c0.088,0.145,0.17,0.282,0.246,0.411c0.342,0.584,0.352,0.958,0.336,1.292c-0.1,1.848-1.426,3.445-3.226,3.883
				c-1.581,0.387-3.234-0.18-4.312-1.478c-0.887-1.065-2.857-6.718-2.951-12.269c1.045,0.149,2.143,0.23,3.295,0.23
				c1.693,0,3.232-0.16,4.658-0.416C57.391,69.485,58.869,71.941,59.771,73.432z M66.404,61.521
				c-0.537,0.189-1.084,0.393-1.645,0.602c-3.176,1.179-6.777,2.517-11.6,2.517c-2.881,0-5.436-0.508-7.5-1.414
				c-0.656-2.049-0.992-4.229-0.992-6.486c0-2.953,0.59-5.848,1.702-8.366c1.931-0.726,4.229-1.128,6.79-1.128
				c5.07,0,8.799,1.425,12.089,2.681c0.39,0.148,0.771,0.295,1.149,0.436c2.438,0.91,5.104,0.535,6.477,0.232
				c-0.486,1.291-0.773,3.183-0.773,5.253c0,2.22,0.326,4.218,0.871,5.502C71.596,61.034,68.908,60.636,66.404,61.521z
				 M72.965,55.847c0-2.417,0.412-4.616,1.05-5.66c0.019-0.023,0.034-0.049,0.047-0.077c0.003-0.005,0.007-0.012,0.009-0.016
				c0.104-0.134,0.764-0.753,1.605-1.524c-0.596,1.892-0.904,4.593-0.904,7.277c0,2.687,0.309,5.39,0.907,7.282
				c-0.756-0.684-1.378-1.251-1.451-1.325C73.619,61.123,72.965,58.969,72.965,55.847z M77.733,64.832
				c-0.856,0-2.099-3.5-2.099-8.985s1.242-8.985,2.099-8.985s2.099,3.5,2.099,8.985S78.59,64.832,77.733,64.832z"/>
		</g>
	</g>
	<path fill="#E97B58" d="M51.129,51.887c-1.685-0.147-3.174,1.129-3.318,2.787L47.678,56.2c-0.07,0.815,0.18,1.61,0.708,2.237
		c0.525,0.627,1.265,1.01,2.079,1.08c0.092,0.01,0.18,0.012,0.27,0.012c1.572,0,2.914-1.229,3.051-2.797l0.133-1.527
		C54.064,53.522,52.814,52.033,51.129,51.887z M52.926,56.657c-0.105,1.192-1.17,2.11-2.385,2.002
		c-0.586-0.05-1.117-0.327-1.496-0.776c-0.377-0.451-0.559-1.021-0.508-1.607l0.133-1.527c0.098-1.127,1.061-2.012,2.191-2.012
		c0.064,0,0.129,0.004,0.195,0.01c1.209,0.104,2.107,1.176,2.002,2.385L52.926,56.657z"/>
	<path fill="#E97B58" d="M75.676,48.569c-0.842,0.771-1.502,1.391-1.605,1.524c-0.002,0.004-0.006,0.011-0.009,0.016
		c-0.013,0.028-0.028,0.054-0.047,0.077c-0.638,1.044-1.05,3.243-1.05,5.66c0,3.122,0.654,5.276,1.263,5.957
		c0.073,0.074,0.695,0.642,1.451,1.325c-0.599-1.893-0.907-4.596-0.907-7.282C74.771,53.162,75.08,50.461,75.676,48.569z"/>
</g>
<circle fill="none" stroke="#E97B58" stroke-width="3" stroke-miterlimit="10" cx="60" cy="60" r="40"/>
</svg>
