<?xml version="1.0" encoding="utf-8"?>
<!-- Generator: Adobe Illustrator 16.0.0, SVG Export Plug-In . SVG Version: 6.00 Build 0)  -->
<!DOCTYPE svg PUBLIC "-//W3C//DTD SVG 1.1//EN" "http://www.w3.org/Graphics/SVG/1.1/DTD/svg11.dtd">
<svg version="1.1" id="Layer_1" xmlns="http://www.w3.org/2000/svg" xmlns:xlink="http://www.w3.org/1999/xlink" x="0px" y="0px"
	 width="120px" height="120px" viewBox="0 0 120 120" enable-background="new 0 0 120 120" xml:space="preserve">
<path fill="#E97B58" d="M65.264,62.711c-0.006-0.227-0.193-0.406-0.42-0.402l-1.092,0.024l-0.174-8.062
	c-0.006-0.227-0.193-0.406-0.418-0.4l-0.48,0.01l-0.261-12.059c-0.007-0.361-0.175-0.637-0.458-0.76
	c-0.369-0.16-0.585-0.014-1.04,0.395C58.939,43.237,57,46.139,57,49.094c0,0.014,0,0.025,0,0.037c0,0.133-0.289,0.264-0.287,0.396
	l-0.043,4.486l-0.547,0.01c-0.226,0.006-0.441,0.193-0.438,0.42l0.159,8.061l-1.101,0.024c-0.229,0.005-0.412,0.192-0.407,0.419
	l0.399,18.516c0.018,0.865,0.737,1.555,1.604,1.536l7.787-0.168c0.867-0.019,1.557-0.739,1.537-1.606L65.264,62.711z M57.258,49.387
	c2.424-1.09,3.721-3.017,4.404-4.649l0.197,9.161l-4.508,0.098l-0.098-4.486C57.254,49.468,57.258,49.427,57.258,49.387z
	 M56.646,62.487l-0.166-7.652l6.285-0.136l0.166,7.652L56.646,62.487z"/>
<circle fill="none" stroke="#E97B58" stroke-width="3" stroke-miterlimit="10" cx="60" cy="60" r="40"/>
</svg>
