<?xml version="1.0" encoding="utf-8"?>
<!-- Generator: Adobe Illustrator 16.0.0, SVG Export Plug-In . SVG Version: 6.00 Build 0)  -->
<!DOCTYPE svg PUBLIC "-//W3C//DTD SVG 1.1//EN" "http://www.w3.org/Graphics/SVG/1.1/DTD/svg11.dtd">
<svg version="1.1" id="Layer_1" xmlns="http://www.w3.org/2000/svg" xmlns:xlink="http://www.w3.org/1999/xlink" x="0px" y="0px"
	 width="120px" height="120px" viewBox="0 0 120 120" enable-background="new 0 0 120 120" xml:space="preserve">
<path fill-rule="evenodd" clip-rule="evenodd" fill="#FEEAF7" d="M57.891,53.029c-0.816-0.667-0.91-1.206-0.414-1.926
	c0.723-1.045,1.861-1.378,2.998-1.701c0.105-0.03,0.233-0.047,0.272,0.059c0.026,0.082-0.001,0.224-0.062,0.286
	c-0.084,0.09-0.213,0.149-0.33,0.187C58.892,50.396,57.811,51.183,57.891,53.029z"/>
<path fill="#E97B58" d="M55.191,62.335c-7.338,0-11.342,1.521-11.342,2.303c0,0.781,4.004,2.302,11.342,2.302
	s11.343-1.521,11.343-2.302C66.534,63.855,62.529,62.335,55.191,62.335z"/>
<g>
	<path fill="#E97B58" d="M55.191,61.878C50.975,61.878,43,62.45,43,64.613v5.817c0,0.484,0.402,0.889,1.072,1.226
		c-0.006,0.028-0.018,0.056-0.018,0.086v5.73c0,1.998,7.285,2.527,11.137,2.527c3.85,0,11.139-0.529,11.139-2.527v-5.73
		c0-0.03-0.016-0.058-0.018-0.086c0.67-0.337,1.071-0.741,1.071-1.226v-5.817C67.384,62.45,59.41,61.878,55.191,61.878z
		 M55.191,62.729c7.338,0,11.343,1.245,11.343,1.885c0,0.641-4.005,1.885-11.343,1.885S43.85,65.254,43.85,64.613
		C43.85,63.974,47.854,62.729,55.191,62.729z M65.479,77.472c-0.053,0.569-3.729,1.678-10.287,1.678s-10.234-1.108-10.287-1.677
		v-5.476c2.626,0.893,7.361,1.169,10.287,1.169s7.661-0.276,10.287-1.169V77.472z M55.191,72.315
		c-7.338,0-11.342-1.244-11.342-1.885v-4.712c2.166,1.261,7.96,1.629,11.342,1.629c3.383,0,9.177-0.368,11.343-1.629v4.712
		C66.534,71.071,62.529,72.315,55.191,72.315z"/>
</g>
<g>
	<path fill="#E97B58" d="M66.776,51.372l-5.229-3.026l12.208-5.385c0.48-0.21,0.959-0.417,1.436-0.624
		c1.031-0.446,2.098-0.908,3.13-1.393c0.2-0.093,0.36-0.136,0.511-0.136c0.439,0,0.648,0.388,0.748,0.574
		c0.525,0.979,0.932,1.988,1.335,3.021c0.19,0.491,0.067,0.789-0.411,0.995c-3.641,1.575-7.275,3.16-10.908,4.745L66.776,51.372z
		 M62.768,48.412l4.044,2.342l2.563-1.117c3.635-1.585,7.271-3.169,10.909-4.745c0.142-0.062,0.167-0.097,0.169-0.099l0,0
		c-0.002,0,0.002-0.042-0.055-0.189c-0.395-1.017-0.795-2.009-1.304-2.959c-0.151-0.283-0.22-0.283-0.263-0.283
		c-0.045,0-0.127,0.014-0.273,0.083c-1.041,0.488-2.113,0.952-3.148,1.4c-0.477,0.206-0.953,0.413-1.432,0.622L62.768,48.412z"/>
</g>
<path fill-rule="evenodd" clip-rule="evenodd" fill="#E97B58" d="M62.158,48.379c1.543,0.896,3.088,1.79,4.636,2.685
	c-2.032,1.004-4.054,2.029-6.099,3.004c-0.611,0.291-0.889,0.695-0.983,1.358c-0.327,2.331-0.413,4.68-0.599,7.02
	c-0.04,0.492-0.15,0.979-0.258,1.462c-0.042,0.194-0.143,0.458-0.412,0.327c-0.229-0.109-0.107-0.33,0.012-0.463
	c0.274-0.31,0.248-0.664,0.22-1.033c-0.161-2.16-0.345-4.321-0.456-6.484c-0.055-1.027-0.459-1.846-1.099-2.611
	c-1.023-1.227-0.792-2.747,0.622-3.499C59.142,49.4,60.633,48.834,62.158,48.379z M57.891,53.029
	c-0.08-1.847,1.001-2.634,2.465-3.096c0.117-0.037,0.246-0.097,0.33-0.187c0.061-0.063,0.088-0.204,0.062-0.286
	c-0.039-0.105-0.167-0.089-0.272-0.059c-1.137,0.323-2.275,0.656-2.998,1.701C56.98,51.823,57.074,52.362,57.891,53.029z"/>
<circle fill="none" stroke="#E97B58" stroke-width="3" stroke-miterlimit="10" cx="60" cy="60" r="40"/>
</svg>
