<?xml version="1.0" encoding="utf-8"?>
<!-- Generator: Adobe Illustrator 16.0.0, SVG Export Plug-In . SVG Version: 6.00 Build 0)  -->
<!DOCTYPE svg PUBLIC "-//W3C//DTD SVG 1.1//EN" "http://www.w3.org/Graphics/SVG/1.1/DTD/svg11.dtd">
<svg version="1.1" id="Layer_1" xmlns="http://www.w3.org/2000/svg" xmlns:xlink="http://www.w3.org/1999/xlink" x="0px" y="0px"
	 width="120px" height="120px" viewBox="0 0 120 120" enable-background="new 0 0 120 120" xml:space="preserve">
<circle fill="none" stroke="#E97B58" stroke-width="3" stroke-miterlimit="10" cx="60" cy="60" r="40"/>
<g>
	<g>
		<g>
			<rect x="44.5" y="56.5" fill="#E97B58" width="31" height="6"/>
		</g>
		<g>
			<rect x="45.5" y="63.5" fill="#E97B58" width="29" height="13"/>
		</g>
	</g>
	<g>
		<path fill="#E97B58" d="M69.569,49.048c-0.597-0.966-1.568-1.498-2.735-1.498c-1.086,0-2.264,0.466-3.339,1.334
			c0.249-1.468,0.223-2.881-0.386-3.888c-0.406-0.673-1.249-1.478-2.961-1.478c-1.706,0-2.534,0.79-2.929,1.458
			c-0.61,1.035-0.589,2.504-0.278,4.023c-1.113-0.942-2.345-1.449-3.479-1.449c-1.167,0-2.139,0.532-2.736,1.498
			c-0.748,1.212-0.776,2.568-0.08,3.819c1.168,2.095,4.273,3.615,7.382,3.615c0.519,0,1.034-0.042,1.529-0.125l0.589-0.099
			l0.589,0.099c0.496,0.083,1.011,0.125,1.531,0.125l0,0c3.107,0,6.212-1.521,7.379-3.615C70.346,51.616,70.317,50.26,69.569,49.048
			z M58.757,45.897c0.148-0.252,0.455-0.588,1.391-0.588c0.954,0,1.275,0.349,1.434,0.612c0.813,1.344-0.192,4.674-1.314,7.238
			C59.071,50.583,57.968,47.233,58.757,45.897z M52.207,51.998c-0.385-0.689-0.372-1.348,0.039-2.013
			c0.268-0.433,0.677-0.652,1.217-0.652c2.323,0,4.165,2.87,4.86,5.359C55.779,54.786,53.1,53.599,52.207,51.998z M68.09,51.998
			c-0.893,1.601-3.57,2.792-6.116,2.694c0.695-2.489,2.537-5.359,4.86-5.359c0.54,0,0.949,0.219,1.217,0.652
			C68.462,50.65,68.476,51.309,68.09,51.998z"/>
	</g>
</g>
</svg>
